<mxfile host="65bd71144e">
    <diagram id="-zeXLPAT1gFkJel4JWfe" name="Page-1">
        <mxGraphModel dx="733" dy="518" grid="1" gridSize="10" guides="1" tooltips="1" connect="1" arrows="1" fold="1" page="1" pageScale="1" pageWidth="1654" pageHeight="1169" math="0" shadow="0">
            <root>
                <mxCell id="0"/>
                <mxCell id="1" parent="0"/>
                <mxCell id="3" value="" style="image;html=1;image=img/lib/clip_art/people/Worker_Man_128x128.png" vertex="1" parent="1">
                    <mxGeometry x="360" y="320" width="80" height="80" as="geometry"/>
                </mxCell>
                <mxCell id="4" value="" style="image;html=1;image=img/lib/clip_art/people/Telesales_Man_Black_128x128.png" vertex="1" parent="1">
                    <mxGeometry x="360" y="440" width="80" height="80" as="geometry"/>
                </mxCell>
                <mxCell id="5" value="Data consumer" style="text;strokeColor=none;align=center;fillColor=none;html=1;verticalAlign=middle;whiteSpace=wrap;rounded=0;fontFamily=Roboto;fontSource=https%3A%2F%2Ffonts.googleapis.com%2Fcss%3Ffamily%3DRoboto;" vertex="1" parent="1">
                    <mxGeometry x="352.5" y="520" width="95" height="20" as="geometry"/>
                </mxCell>
                <mxCell id="7" value="Data Engineer" style="text;strokeColor=none;align=center;fillColor=none;html=1;verticalAlign=middle;whiteSpace=wrap;rounded=0;fontFamily=Roboto;fontSource=https%3A%2F%2Ffonts.googleapis.com%2Fcss%3Ffamily%3DRoboto;" vertex="1" parent="1">
                    <mxGeometry x="352.5" y="400" width="95" height="20" as="geometry"/>
                </mxCell>
                <mxCell id="8" value="Ops" style="text;strokeColor=none;align=center;fillColor=none;html=1;verticalAlign=middle;whiteSpace=wrap;rounded=0;fontFamily=Roboto;fontSource=https%3A%2F%2Ffonts.googleapis.com%2Fcss%3Ffamily%3DRoboto;" vertex="1" parent="1">
                    <mxGeometry x="352.5" y="290" width="95" height="20" as="geometry"/>
                </mxCell>
                <mxCell id="9" value="" style="image;html=1;image=img/lib/clip_art/people/Doctor_Woman_128x128.png" vertex="1" parent="1">
                    <mxGeometry x="360" y="210" width="80" height="80" as="geometry"/>
                </mxCell>
                <mxCell id="10" value="" style="image;sketch=0;aspect=fixed;html=1;points=[];align=center;fontSize=12;image=img/lib/mscae/Docker.svg;" vertex="1" parent="1">
                    <mxGeometry x="600" y="229.5" width="50" height="41" as="geometry"/>
                </mxCell>
                <mxCell id="11" value="" style="shape=image;verticalLabelPosition=bottom;labelBackgroundColor=#000000;verticalAlign=top;aspect=fixed;imageAspect=0;image=data:image/svg+xml,PHN2ZyB4bWxucz0iaHR0cDovL3d3dy53My5vcmcvMjAwMC9zdmciIGZpbGw9Im5vbmUiIHZpZXdCb3g9IjAgMCAxMzUgNDAiIGhlaWdodD0iNDAiIHdpZHRoPSIxMzUiPgo8ZyBjbGlwLXBhdGg9InVybCgjY2xpcDBfMzc4XzEwODYwKSI+CjxyZWN0IGZpbGw9IndoaXRlIiByeD0iMC4yMzY2NjQiIGhlaWdodD0iMjAuMjQ5MyIgd2lkdGg9IjIuMjQ5OTIiIHk9IjkuODc1IiB4PSIyLjcwODM3Ii8+CjxyZWN0IGZpbGw9IndoaXRlIiByeD0iMC4yMzY2NjQiIGhlaWdodD0iMjAuMjQ5MyIgd2lkdGg9IjIuMjQ5OTIiIHk9IjkuODc1IiB4PSI3LjIwODUiLz4KPHJlY3QgZmlsbD0id2hpdGUiIHJ4PSIwLjIzNjY2NCIgaGVpZ2h0PSIyMC4yNDkzIiB3aWR0aD0iMi4yNDk5MiIgeT0iOS44NzUiIHg9IjExLjcwODYiLz4KPHJlY3QgZmlsbD0id2hpdGUiIHJ4PSIwLjIzNjY2NCIgaGVpZ2h0PSIyMC4yNDkzIiB3aWR0aD0iMi4yNDk5MiIgeT0iOS44NzUiIHg9IjE2LjIwNzYiLz4KPHJlY3QgZmlsbD0id2hpdGUiIHJ4PSIwLjIzNjY2NCIgaGVpZ2h0PSI0LjQ5OTg1IiB3aWR0aD0iMi4yNDk5MiIgeT0iMTcuNzUwMiIgeD0iMjAuNzA4NyIvPgo8L2c+CjxwYXRoIGZpbGw9IndoaXRlIiBkPSJNNDAuMDMzNCAxNS4xNDJDMzkuMzk3NCAxNS4xNDIgMzguODI3NCAxNS4yNTYgMzguMzIzNCAxNS40ODRDMzcuODE5NCAxNS43IDM3LjM4NzQgMTYuMDI0IDM3LjAyNzQgMTYuNDU2QzM2LjY3OTQgMTYuODg4IDM2LjQwOTQgMTcuNDEgMzYuMjE3NCAxOC4wMjJDMzYuMDM3NCAxOC42MzQgMzUuOTQ3NCAxOS4zMjQgMzUuOTQ3NCAyMC4wOTJDMzUuOTQ3NCAyMS4xIDM2LjA5NzQgMjEuOTc2IDM2LjM5NzQgMjIuNzJDMzYuNjk3NCAyMy40NTIgMzcuMTQ3NCAyNC4wMTYgMzcuNzQ3NCAyNC40MTJDMzguMzQ3NCAyNC44MDggMzkuMTAzNCAyNS4wMDYgNDAuMDE1NCAyNS4wMDZDNDAuNTY3NCAyNS4wMDYgNDEuMDk1NCAyNC45NTggNDEuNTk5NCAyNC44NjJDNDIuMTE1NCAyNC43NTQgNDIuNjM3NCAyNC42MTYgNDMuMTY1NCAyNC40NDhWMjYuMTIyQzQyLjY2MTQgMjYuMzE0IDQyLjE0NTQgMjYuNDUyIDQxLjYxNzQgMjYuNTM2QzQxLjA4OTQgMjYuNjMyIDQwLjQ3NzQgMjYuNjggMzkuNzgxNCAyNi42OEMzOC40NzM0IDI2LjY4IDM3LjM4MTQgMjYuNDEgMzYuNTA1NCAyNS44N0MzNS42NDE0IDI1LjMzIDM0Ljk5MzQgMjQuNTYyIDM0LjU2MTQgMjMuNTY2QzM0LjEyOTQgMjIuNTcgMzMuOTEzNCAyMS40MDYgMzMuOTEzNCAyMC4wNzRDMzMuOTEzNCAxOS4xMDIgMzQuMDQ1NCAxOC4yMTQgMzQuMzA5NCAxNy40MUMzNC41ODU0IDE2LjU5NCAzNC45ODE0IDE1Ljg5MiAzNS40OTc0IDE1LjMwNEMzNi4wMTM0IDE0LjcxNiAzNi42NDk0IDE0LjI2NiAzNy40MDU0IDEzLjk1NEMzOC4xNzM0IDEzLjYzIDM5LjA1NTQgMTMuNDY4IDQwLjA1MTQgMTMuNDY4QzQwLjY5OTQgMTMuNDY4IDQxLjMzNTQgMTMuNTQgNDEuOTU5NCAxMy42ODRDNDIuNTgzNCAxMy44MTYgNDMuMTQ3NCAxNC4wMDggNDMuNjUxNCAxNC4yNkw0Mi45MzE0IDE1Ljg4QzQyLjUxMTQgMTUuNjg4IDQyLjA1NTQgMTUuNTIgNDEuNTYzNCAxNS4zNzZDNDEuMDgzNCAxNS4yMiA0MC41NzM0IDE1LjE0MiA0MC4wMzM0IDE1LjE0MlpNNDcuNjI2IDI2LjVINDUuNzE4VjEyLjgySDQ3LjYyNlYyNi41Wk01Mi41MzAzIDE2Ljc5OFYyNi41SDUwLjYyMjNWMTYuNzk4SDUyLjUzMDNaTTUxLjU5NDMgMTMuMTA4QzUxLjg4MjMgMTMuMTA4IDUyLjEzNDMgMTMuMTkyIDUyLjM1MDMgMTMuMzZDNTIuNTY2MyAxMy41MjggNTIuNjc0MyAxMy44MSA1Mi42NzQzIDE0LjIwNkM1Mi42NzQzIDE0LjU5IDUyLjU2NjMgMTQuODcyIDUyLjM1MDMgMTUuMDUyQzUyLjEzNDMgMTUuMjIgNTEuODgyMyAxNS4zMDQgNTEuNTk0MyAxNS4zMDRDNTEuMjgyMyAxNS4zMDQgNTEuMDE4MyAxNS4yMiA1MC44MDIzIDE1LjA1MkM1MC41OTgzIDE0Ljg3MiA1MC40OTYzIDE0LjU5IDUwLjQ5NjMgMTQuMjA2QzUwLjQ5NjMgMTMuODEgNTAuNTk4MyAxMy41MjggNTAuODAyMyAxMy4zNkM1MS4wMTgzIDEzLjE5MiA1MS4yODIzIDEzLjEwOCA1MS41OTQzIDEzLjEwOFpNNTkuNDMyNiAyNi42OEM1OC41NDQ2IDI2LjY4IDU3Ljc2NDYgMjYuNTA2IDU3LjA5MjYgMjYuMTU4QzU2LjQyMDYgMjUuODEgNTUuODk4NiAyNS4yNyA1NS41MjY2IDI0LjUzOEM1NS4xNTQ2IDIzLjc5NCA1NC45Njg2IDIyLjg1MiA1NC45Njg2IDIxLjcxMkM1NC45Njg2IDIwLjUxMiA1NS4xNjY2IDE5LjU0IDU1LjU2MjYgMTguNzk2QzU1Ljk3MDYgMTguMDUyIDU2LjUxNjYgMTcuNTA2IDU3LjIwMDYgMTcuMTU4QzU3Ljg5NjYgMTYuNzk4IDU4LjY4ODYgMTYuNjE4IDU5LjU3NjYgMTYuNjE4QzYwLjExNjYgMTYuNjE4IDYwLjYyMDYgMTYuNjc4IDYxLjA4ODYgMTYuNzk4QzYxLjU2ODYgMTYuOTA2IDYxLjk2NDYgMTcuMDMyIDYyLjI3NjYgMTcuMTc2TDYxLjcwMDYgMTguNzI0QzYxLjM2NDYgMTguNTkyIDYxLjAwNDYgMTguNDc4IDYwLjYyMDYgMTguMzgyQzYwLjI0ODYgMTguMjg2IDU5Ljg5NDYgMTguMjM4IDU5LjU1ODYgMTguMjM4QzU4Ljk1ODYgMTguMjM4IDU4LjQ2MDYgMTguMzcgNTguMDY0NiAxOC42MzRDNTcuNjgwNiAxOC44ODYgNTcuMzkyNiAxOS4yNyA1Ny4yMDA2IDE5Ljc4NkM1Ny4wMjA2IDIwLjI5IDU2LjkzMDYgMjAuOTI2IDU2LjkzMDYgMjEuNjk0QzU2LjkzMDYgMjIuNDI2IDU3LjAyNjYgMjMuMDQ0IDU3LjIxODYgMjMuNTQ4QzU3LjQxMDYgMjQuMDUyIDU3LjY5MjYgMjQuNDM2IDU4LjA2NDYgMjQuN0M1OC40NDg2IDI0Ljk1MiA1OC45MjI2IDI1LjA3OCA1OS40ODY2IDI1LjA3OEM2MC4wMjY2IDI1LjA3OCA2MC41MDA2IDI1LjAxOCA2MC45MDg2IDI0Ljg5OEM2MS4zMTY2IDI0Ljc3OCA2MS43MDA2IDI0LjYyMiA2Mi4wNjA2IDI0LjQzVjI2LjA4NkM2MS43MTI2IDI2LjI5IDYxLjMzNDYgMjYuNDQgNjAuOTI2NiAyNi41MzZDNjAuNTE4NiAyNi42MzIgNjAuMDIwNiAyNi42OCA1OS40MzI2IDI2LjY4Wk02Ni4yNDA4IDE5LjY2QzY2LjI0MDggMTkuOTEyIDY2LjIyODggMjAuMiA2Ni4yMDQ4IDIwLjUyNEM2Ni4xOTI4IDIwLjg0OCA2Ni4xNzQ4IDIxLjE0OCA2Ni4xNTA4IDIxLjQyNEg2Ni4yMDQ4QzY2LjMwMDggMjEuMzA0IDY2LjQxNDggMjEuMTYgNjYuNTQ2OCAyMC45OTJDNjYuNjkwOCAyMC44MTIgNjYuODM0OCAyMC42MzIgNjYuOTc4OCAyMC40NTJDNjcuMTIyOCAyMC4yNzIgNjcuMjU0OCAyMC4xMTYgNjcuMzc0OCAxOS45ODRMNzAuMzQ0OCAxNi43OThINzIuNTU4OEw2OC42NTI4IDIwLjk1Nkw3Mi44MTA4IDI2LjVINzAuNTYwOEw2Ny4zNTY4IDIyLjE2Mkw2Ni4yNDA4IDIzLjA5OFYyNi41SDY0LjM1MDhWMTIuODJINjYuMjQwOFYxOS42NlpNODQuNjQ3NSAyNi41SDgyLjcwMzVWMjAuNjMySDc2LjU2NTVWMjYuNUg3NC42MjE1VjEzLjY0OEg3Ni41NjU1VjE4Ljk3Nkg4Mi43MDM1VjEzLjY0OEg4NC42NDc1VjI2LjVaTTk2LjQyMDMgMjEuNjRDOTYuNDIwMyAyMi40NDQgOTYuMzEyMyAyMy4xNTggOTYuMDk2MyAyMy43ODJDOTUuODgwMyAyNC40MDYgOTUuNTc0MyAyNC45MzQgOTUuMTc4MyAyNS4zNjZDOTQuNzgyMyAyNS43OTggOTQuMzAyMyAyNi4xMjggOTMuNzM4MyAyNi4zNTZDOTMuMTc0MyAyNi41NzIgOTIuNTM4MyAyNi42OCA5MS44MzAzIDI2LjY4QzkxLjE4MjMgMjYuNjggOTAuNTgyMyAyNi41NzIgOTAuMDMwMyAyNi4zNTZDODkuNDc4MyAyNi4xMjggODguOTk4MyAyNS43OTggODguNTkwMyAyNS4zNjZDODguMTk0MyAyNC45MzQgODcuODgyMyAyNC40MDYgODcuNjU0MyAyMy43ODJDODcuNDI2MyAyMy4xNTggODcuMzEyMyAyMi40MzggODcuMzEyMyAyMS42MjJDODcuMzEyMyAyMC41NTQgODcuNDkyMyAxOS42NDggODcuODUyMyAxOC45MDRDODguMjI0MyAxOC4xNiA4OC43NTIzIDE3LjU5NiA4OS40MzYzIDE3LjIxMkM5MC4xMzIzIDE2LjgxNiA5MC45NDgzIDE2LjYxOCA5MS44ODQzIDE2LjYxOEM5Mi43NzIzIDE2LjYxOCA5My41NTIzIDE2LjgxNiA5NC4yMjQzIDE3LjIxMkM5NC45MDgzIDE3LjU5NiA5NS40NDIzIDE4LjE2IDk1LjgyNjMgMTguOTA0Qzk2LjIyMjMgMTkuNjQ4IDk2LjQyMDMgMjAuNTYgOTYuNDIwMyAyMS42NFpNODkuMjc0MyAyMS42NEM4OS4yNzQzIDIyLjM2IDg5LjM2NDMgMjIuOTg0IDg5LjU0NDMgMjMuNTEyQzg5LjcyNDMgMjQuMDI4IDkwLjAwNjMgMjQuNDI0IDkwLjM5MDMgMjQuN0M5MC43NzQzIDI0Ljk3NiA5MS4yNjYzIDI1LjExNCA5MS44NjYzIDI1LjExNEM5Mi40NjYzIDI1LjExNCA5Mi45NTgzIDI0Ljk3NiA5My4zNDIzIDI0LjdDOTMuNzI2MyAyNC40MjQgOTQuMDA4MyAyNC4wMjggOTQuMTg4MyAyMy41MTJDOTQuMzY4MyAyMi45ODQgOTQuNDU4MyAyMi4zNiA5NC40NTgzIDIxLjY0Qzk0LjQ1ODMgMjAuODk2IDk0LjM2MjMgMjAuMjcyIDk0LjE3MDMgMTkuNzY4QzkzLjk5MDMgMTkuMjY0IDkzLjcwODMgMTguODggOTMuMzI0MyAxOC42MTZDOTIuOTUyMyAxOC4zNCA5Mi40NjAzIDE4LjIwMiA5MS44NDgzIDE4LjIwMkM5MC45NDgzIDE4LjIwMiA5MC4yOTQzIDE4LjUwMiA4OS44ODYzIDE5LjEwMkM4OS40NzgzIDE5LjcwMiA4OS4yNzQzIDIwLjU0OCA4OS4yNzQzIDIxLjY0Wk0xMDcuMTkxIDE2Ljc5OFYyNi41SDEwNS42NjFMMTA1LjM5MSAyNS4yMjJIMTA1LjMwMUMxMDUuMDk3IDI1LjU1OCAxMDQuODMzIDI1LjgzNCAxMDQuNTA5IDI2LjA1QzEwNC4xODUgMjYuMjY2IDEwMy44MzEgMjYuNDIyIDEwMy40NDcgMjYuNTE4QzEwMy4wNjMgMjYuNjI2IDEwMi42NjcgMjYuNjggMTAyLjI1OSAyNi42OEMxMDEuNTAzIDI2LjY4IDEwMC44NjEgMjYuNTYgMTAwLjMzMyAyNi4zMkM5OS44MTcxIDI2LjA2OCA5OS40MjExIDI1LjY4NCA5OS4xNDUxIDI1LjE2OEM5OC44ODExIDI0LjY0IDk4Ljc0OTEgMjMuOTY4IDk4Ljc0OTEgMjMuMTUyVjE2Ljc5OEgxMDAuNjc1VjIyLjg2NEMxMDAuNjc1IDIzLjYyIDEwMC44MzEgMjQuMTg0IDEwMS4xNDMgMjQuNTU2QzEwMS40NjcgMjQuOTI4IDEwMS45NjUgMjUuMTE0IDEwMi42MzcgMjUuMTE0QzEwMy4zMDkgMjUuMTE0IDEwMy44MzcgMjQuOTgyIDEwNC4yMjEgMjQuNzE4QzEwNC42MDUgMjQuNDU0IDEwNC44NzUgMjQuMDcgMTA1LjAzMSAyMy41NjZDMTA1LjE5OSAyMy4wNSAxMDUuMjgzIDIyLjQzMiAxMDUuMjgzIDIxLjcxMlYxNi43OThIMTA3LjE5MVpNMTE2LjYyMSAyMy43NjRDMTE2LjYyMSAyNC40IDExNi40NjUgMjQuOTM0IDExNi4xNTMgMjUuMzY2QzExNS44NDEgMjUuNzk4IDExNS4zOTEgMjYuMTI4IDExNC44MDMgMjYuMzU2QzExNC4yMTUgMjYuNTcyIDExMy41MDcgMjYuNjggMTEyLjY3OSAyNi42OEMxMTEuOTk1IDI2LjY4IDExMS40MDcgMjYuNjI2IDExMC45MTUgMjYuNTE4QzExMC40MzUgMjYuNDIyIDEwOS45OTEgMjYuMjc4IDEwOS41ODMgMjYuMDg2VjI0LjQxMkMxMTAuMDE1IDI0LjYxNiAxMTAuNTEzIDI0LjgwMiAxMTEuMDc3IDI0Ljk3QzExMS42NDEgMjUuMTI2IDExMi4xOTMgMjUuMjA0IDExMi43MzMgMjUuMjA0QzExMy40NTMgMjUuMjA0IDExMy45NjkgMjUuMDkgMTE0LjI4MSAyNC44NjJDMTE0LjYwNSAyNC42MzQgMTE0Ljc2NyAyNC4zMjggMTE0Ljc2NyAyMy45NDRDMTE0Ljc2NyAyMy43MjggMTE0LjcwNyAyMy41MzYgMTE0LjU4NyAyMy4zNjhDMTE0LjQ2NyAyMy4xODggMTE0LjIzOSAyMy4wMDggMTEzLjkwMyAyMi44MjhDMTEzLjU3OSAyMi42MzYgMTEzLjA5OSAyMi40MiAxMTIuNDYzIDIyLjE4QzExMS44NTEgMjEuOTI4IDExMS4zMjkgMjEuNjgyIDExMC44OTcgMjEuNDQyQzExMC40NjUgMjEuMTkgMTEwLjEzNSAyMC44OTYgMTA5LjkwNyAyMC41NkMxMDkuNjc5IDIwLjIxMiAxMDkuNTY1IDE5Ljc2OCAxMDkuNTY1IDE5LjIyOEMxMDkuNTY1IDE4LjM4OCAxMDkuOTAxIDE3Ljc0NiAxMTAuNTczIDE3LjMwMkMxMTEuMjU3IDE2Ljg0NiAxMTIuMTU3IDE2LjYxOCAxMTMuMjczIDE2LjYxOEMxMTMuODYxIDE2LjYxOCAxMTQuNDEzIDE2LjY3OCAxMTQuOTI5IDE2Ljc5OEMxMTUuNDU3IDE2LjkwNiAxMTUuOTY3IDE3LjA3NCAxMTYuNDU5IDE3LjMwMkwxMTUuODI5IDE4Ljc2QzExNS41NTMgMTguNjI4IDExNS4yNjUgMTguNTIgMTE0Ljk2NSAxOC40MzZDMTE0LjY3NyAxOC4zNCAxMTQuMzgzIDE4LjI2MiAxMTQuMDgzIDE4LjIwMkMxMTMuNzk1IDE4LjE0MiAxMTMuNDk1IDE4LjExMiAxMTMuMTgzIDE4LjExMkMxMTIuNjA3IDE4LjExMiAxMTIuMTY5IDE4LjIwMiAxMTEuODY5IDE4LjM4MkMxMTEuNTY5IDE4LjU2MiAxMTEuNDE5IDE4LjgxNCAxMTEuNDE5IDE5LjEzOEMxMTEuNDE5IDE5LjM2NiAxMTEuNDg1IDE5LjU2NCAxMTEuNjE3IDE5LjczMkMxMTEuNzYxIDE5LjkgMTEyLjAwNyAyMC4wNjggMTEyLjM1NSAyMC4yMzZDMTEyLjcwMyAyMC40MDQgMTEzLjE3NyAyMC42MDggMTEzLjc3NyAyMC44NDhDMTE0LjM3NyAyMS4wNzYgMTE0Ljg4NyAyMS4zMSAxMTUuMzA3IDIxLjU1QzExNS43MzkgMjEuNzkgMTE2LjA2MyAyMi4wODQgMTE2LjI3OSAyMi40MzJDMTE2LjUwNyAyMi43OCAxMTYuNjIxIDIzLjIyNCAxMTYuNjIxIDIzLjc2NFpNMTIyLjcxMiAxNi42MThDMTIzLjU2NCAxNi42MTggMTI0LjI5NiAxNi43OTggMTI0LjkwOCAxNy4xNThDMTI1LjUyIDE3LjUwNiAxMjUuOTg4IDE4LjAxIDEyNi4zMTIgMTguNjdDMTI2LjY0OCAxOS4zMyAxMjYuODE2IDIwLjExIDEyNi44MTYgMjEuMDFWMjIuMDU0SDEyMC4zQzEyMC4zMjQgMjMuMDUgMTIwLjU4MiAyMy44MTIgMTIxLjA3NCAyNC4zNEMxMjEuNTc4IDI0Ljg2OCAxMjIuMjggMjUuMTMyIDEyMy4xOCAyNS4xMzJDMTIzLjgwNCAyNS4xMzIgMTI0LjM1NiAyNS4wNzggMTI0LjgzNiAyNC45N0MxMjUuMzI4IDI0Ljg1IDEyNS44MzIgMjQuNjc2IDEyNi4zNDggMjQuNDQ4VjI2LjAzMkMxMjUuODY4IDI2LjI0OCAxMjUuMzc2IDI2LjQxIDEyNC44NzIgMjYuNTE4QzEyNC4zOCAyNi42MjYgMTIzLjc5MiAyNi42OCAxMjMuMTA4IDI2LjY4QzEyMi4xNzIgMjYuNjggMTIxLjM0NCAyNi40OTQgMTIwLjYyNCAyNi4xMjJDMTE5LjkwNCAyNS43NSAxMTkuMzQgMjUuMTk4IDExOC45MzIgMjQuNDY2QzExOC41MzYgMjMuNzIyIDExOC4zMzggMjIuODEgMTE4LjMzOCAyMS43M0MxMTguMzM4IDIwLjYzOCAxMTguNTE4IDE5LjcxNCAxMTguODc4IDE4Ljk1OEMxMTkuMjUgMTguMjAyIDExOS43NiAxNy42MjYgMTIwLjQwOCAxNy4yM0MxMjEuMDY4IDE2LjgyMiAxMjEuODM2IDE2LjYxOCAxMjIuNzEyIDE2LjYxOFpNMTIyLjcxMiAxOC4wOTRDMTIyLjAyOCAxOC4wOTQgMTIxLjQ3NiAxOC4zMTYgMTIxLjA1NiAxOC43NkMxMjAuNjQ4IDE5LjIwNCAxMjAuNDA4IDE5LjgzNCAxMjAuMzM2IDIwLjY1SDEyNC45MDhDMTI0LjkwOCAyMC4xNDYgMTI0LjgzIDE5LjcwMiAxMjQuNjc0IDE5LjMxOEMxMjQuNTE4IDE4LjkzNCAxMjQuMjc4IDE4LjYzNCAxMjMuOTU0IDE4LjQxOEMxMjMuNjMgMTguMjAyIDEyMy4yMTYgMTguMDk0IDEyMi43MTIgMTguMDk0WiIvPgo8ZGVmcz4KPGNsaXBQYXRoIGlkPSJjbGlwMF8zNzhfMTA4NjAiPgo8cmVjdCB0cmFuc2Zvcm09InRyYW5zbGF0ZSgwLjgzMzM3NCA4KSIgZmlsbD0id2hpdGUiIGhlaWdodD0iMjQiIHdpZHRoPSIyNCIvPgo8L2NsaXBQYXRoPgo8L2RlZnM+Cjwvc3ZnPg==;labelBorderColor=none;textShadow=0;imageBackground=#000000;" vertex="1" parent="1">
                    <mxGeometry x="565" y="342.22" width="120" height="35.56" as="geometry"/>
                </mxCell>
                <mxCell id="12" value="" style="image;aspect=fixed;html=1;points=[];align=center;fontSize=12;image=img/lib/azure2/power_platform/PowerBI.svg;" vertex="1" parent="1">
                    <mxGeometry x="610" y="470" width="30" height="40" as="geometry"/>
                </mxCell>
            </root>
        </mxGraphModel>
    </diagram>
</mxfile>